# xmcd
#
# Track frame offsets: 
#        150
#        33684
#        64959
#        108095
#        135984
#        166679
#        199397
#        227607
#        258398
#        289627
#        326575
#
# Disc length: 4754 seconds
#
# Revision: 0
# Processed by: cddbd v1.5.2PL0 Copyright (c) Steve Scherf et al.
# Submitted via: ExactAudioCopy v1.3
#
DISCID=9712900b
DTITLE=Various Artist - Akella Presents - vol. 219 - Longtime Rockin'
DTITLE=Blues  CD1
DYEAR=2019
DGENRE=Blues
TTITLE0=Sidetrackers - Gotta Serve Somebody
TTITLE1=Travellin' Blue Kings - I'm a Good Man
TTITLE2=Avey Grouws Band - Beck And Call Girl
TTITLE3=Steve Freund - Come On in This House
TTITLE4=Linsey Alexander - My Mama Gave Me the Blues
TTITLE5=North Mississippi Allstars and Anders Osborne - Brush up Against
TTITLE5=You
TTITLE6=Thunder - Empty City (2019 Version)
TTITLE7=Michael Bloom and the Blues Prophecy - Old Man Blues
TTITLE8=Coco Montoya - Lights Are On But Nobody's Home
TTITLE9=Too Mutz Blues Band - A Quitter Never Wins
TTITLE10=Keith Stone and Red Gravy - Hard To Have The Blues
EXTD=
EXTT0=
EXTT1=
EXTT2=
EXTT3=
EXTT4=
EXTT5=
EXTT6=
EXTT7=
EXTT8=
EXTT9=
EXTT10=
PLAYORDER=
